<svg xmlns="http://www.w3.org/2000/svg" width="507.174" height="134.738" viewBox="0 0 507.174 134.738"><g transform="translate(-0.1)"><path d="M43.6,34.4c19.3,0,25,7.6,25,7.6H69s-.2-1.9-.2-4.3V9.4L100.9,0V132.2h-30v-6.3c0-3,.2-5.4.2-5.4h-.4s-8,13.9-27.6,13.9c-26,0-43-20.4-43-50.1C0,54.1,18.2,34.4,43.6,34.4ZM51,107.9c9.6,0,18.7-7,18.7-23.6,0-11.5-6.1-22.8-18.7-22.8-10,0-18.7,8.2-18.7,22.8C32.3,98.6,39.9,107.9,51,107.9Z"/><path d="M118.5,36.6h65s-1.734,18.4-2.067,19.067c-.333.333-42.333,60.667-42.333,60h42.333V132.1H118.5V115.667l45.6-60H118.5Z"/><path d="M238.5,34.4c28.2,0,44.2,19.7,44.2,46.2,0,3.2-.7,10-.7,10H221.7c2.4,11.7,12.1,17.1,22.3,17.1,13.7,0,26.3-9.6,26.3-9.6l11.9,22.4s-15.4,13.9-40.8,13.9c-34.1,0-52.5-24.7-52.5-50.1C188.8,56.3,207.7,34.4,238.5,34.4Zm11.9,37.9c0-7.2-5-13.7-12.6-13.7-9.3,0-13.7,6.7-15.4,13.7Z"/><path d="M53.529-98.647Q79-98.647,79-64.354V-3.247H56.471V-59.059q0-10.339-2.48-15.466t-7.859-5.127q-7.144,0-10.549,7.144t-3.4,24.291V-3.247H9.821V-96.882H27.556l2.69,12.02h1.429a23.3,23.3,0,0,1,8.7-10.17A23.951,23.951,0,0,1,53.529-98.647Z" transform="translate(278.277 135.247)"/><path d="M11.371-89.715a56.092,56.092,0,0,1,30.483-9.106q16.087,0,24.152,8.759t8.065,24.976V-.217H57.161L52.565-13.4h-.52Q47.014-4.987,41.551-1.735T27.675,1.517q-10.667,0-16.781-7.935T4.78-29.053q0-14.7,8.282-22.2t25.106-8.282L51-60.056v-6.938Q51-80.523,39.3-80.523q-8.586,0-19.946,6.764ZM28.629-28.489q0,11.968,8.5,11.968,6.331,0,10.1-5.68T51-37.335v-8.152l-7.111.347Q36-44.706,32.315-40.63T28.629-28.489Z" transform="translate(358.176 133.221)"/><path d="M53.529-98.647Q79-98.647,79-64.354V-3.247H56.471V-59.059q0-10.339-2.48-15.466t-7.859-5.127q-7.144,0-10.549,7.144t-3.4,24.291V-3.247H9.821V-96.882H27.556l2.69,12.02h1.429a23.3,23.3,0,0,1,8.7-10.17A23.951,23.951,0,0,1,53.529-98.647Z" transform="translate(428.277 137.247)"/></g></svg>