<svg xmlns="http://www.w3.org/2000/svg" width="402.832" height="100.901" viewBox="0 0 402.832 100.901"><g transform="translate(-23.168 131.948)"><path d="M426-42l-2.7,1.7c-2.4,1.6-5.5,1.8-29.3,1.8-29.8-.1-33.6-.7-42.5-7-9.209-6.5-9.741-10.94-12.9-12.1-.994-.38-5.816-.365-6.8.8-.12.14.917-2.18,2.2-2.5.976-.246,2.43,1.478,3.8,1.7,1.04.165,2.494-2.19,2.2-1.7C334.6-50.7,316.8-33,314-33s-12.4-3.1-16-9c-.312-.494-5.938-16.1-5.6-17.3.621-2.249,7.658,1.48,6.4,0L309.6-43l9.8-.7,12.4-13.9L182.8-55c-70.925,0-99.727.2-108.446.845-1.577.116-2.446.274-2.554.455a9.651,9.651,0,0,0-.8,4c0,3.2-2.3,8.2-5.4,11.5-3.5,3.9-7.4,5.4-14.5,5.4-7,.1-11.1-1.4-14.4-5-1.9-2.1-7-14.8-7-17.6,0-.334,3.075.218,7,0,1.774-.1,1.7,5.09,3.9,8.8,1.808,3.045,5.877,4.617,8.4,4.6s8.092-2.077,10.8-4.6c2.406-2.238,1.91-5,3.5-7.1a12.981,12.981,0,0,1,11.054-.455C73.966-54.276,27.13-55.37,26.1-55.4c-1.6-.1-2.7-.8-2.9-1.8-.2-1.2.5-1.7,3-2l3.3-.3-.4-11.8c-.2-6.6.1-11.7.6-11.7s1.6,1.2,2.5,2.7A39.41,39.41,0,0,0,36-75c2.9,3.3,7.4,11,6.8,11.6-.3.3-1.7-.1-3.2-.7-3.5-1.6-5.3-.1-3.7,3,1.1,2,2,2.1,14,2.1,10.4,0,13-.3,13.4-1.5.9-2.3-.9-12-3.4-18.3-.5-1.2-1.3-3.2-1.8-4.5-.4-1.2-1.3-3.4-2-5-1.9-4.7-2.8-7-5.2-13.2-1.2-3.3-3.4-8.5-4.7-11.5a40.437,40.437,0,0,1-3-10.6c-.4-4.5-.1-5.3,1.9-6.8,5.3-3.7,11.9-.4,11.9,6,0,2.5-.7,3.8-3,5.4-3.1,2.2-3.7,4.7-2.1,7.8.5.9,4.1,8.2,7.9,16.2C67.7-78.8,71-69.7,71-64.7c0,1.9.6,4,1.3,4.6,1,.8,32.1,1,110.8.8,52.569-.1,89.467.271,114.9,0s33.649-1.191,33.8-2.1c.1-.491-.187-43.434-10.4-52.6-2.68-2.406-10.977,1.32-14.8,7.9-3.162,5.442-2.8,9.9-2.8,12.6-2,.9-3.992,25.879-5.8,34.2-1.352,6.223-5.521.135-5.6,0-1.6-2.9-1.1-25.5,1-33.2,3.7-13.2,5.8-18.7,9.2-24.5,4.7-8,9-10.3,19.6-10.4,8.5-.1,12,1.6,14.8,7,1.9,3.8,3.2,28.6,1.6,35.8-.9,4.3.4,5,0,8,1.7,3.3,2.1,14.8,0,17.3-.5.7-1.5-3-1.2-2.1.7,1.9,2.1,1.2,11.1-5.7a61.549,61.549,0,0,1,10.5-6c5.2-2.2,7-2.4,33.2-2.7,23.8-.3,28.1-.1,30.7,1.3l3.1,1.6ZM97.7-127.8c.7.6,6.3.8,13.7.6,6.8-.1,12.8,0,13.1.4,2.2,2.2-5.4,8.3-9,7.2-3-.9-16.7-2.2-18.6-1.7a5.29,5.29,0,0,0-2.7,3.1c-1.2,3.3-1.6,17.9-.5,18.5.4.2,4.9.1,9.8-.3,9.8-.7,11.5-.5,11.5,1.6,0,2.9-5.2,4.9-12.7,4.9-4,.1-7.8.6-8.4,1.2-1.8,1.8-.1,8.2,3,11.2a15.61,15.61,0,0,1,3.4,4.3c.5,1.5,1.9,1.8,7.5,1.8a40.077,40.077,0,0,0,10-1.1c3.9-1.3,7.2.2,7.2,3.5,0,3-2.5,5.1-7.6,6.6-3.6,1.1-4.9,1-10.1-.9C101-69.1,92.1-69.7,88.9-68c-1,.6-4.2,1.2-7,1.3-6.5.3-8.4-1.8-5-5.4,2-2.2,2.2-3.1,1.7-9.9-.6-8.7-.6-8.3-.2-18.1.1-4.2.8-9,1.5-10.7,1.2-2.8,1.1-3.6-.8-6.8l-2.2-3.6,2.6-3.4c1.4-1.9,3.8-3.7,5.3-4a33.421,33.421,0,0,0,3.7-.9C90.1-130.1,96.4-128.9,97.7-127.8Zm79.1-.6c3,2.1,2.8,5.6-.8,9.4a81.7,81.7,0,0,0-11.9,17.1c-1.7,3.1-4.4,7.7-6.1,10.2-1.6,2.5-3,4.9-3,5.4s-1.8,2.7-4,4.8c-4.3,4.2-4.9,5.9-2.4,6.9,2.2.8,15.7.6,22.4-.3,5.4-.8,9,0,9,2,0,.5-1.2,2.2-2.6,3.6-2.4,2.4-3,2.5-8.2,1.9-18.4-2.2-20.3-2.1-26.9,1.3-3.5,1.7-7.4,3.1-8.7,3.1-2.6,0-6.6-3.4-6.6-5.5,0-.7,2.6-4.2,5.8-7.8a73.4,73.4,0,0,0,8.8-12.4A251.464,251.464,0,0,1,156-112.2c2.5-3.4,2.7-4.3,1.8-6.4-1-2-1.8-2.4-5.9-2.4a78.055,78.055,0,0,0-12,1.5c-6.4,1.4-7.5,1.4-8.7.1-1.3-1.3-1.3-1.8.1-4,2-3,7-4.2,12.1-2.8,4.6,1.3,17.7,0,22.6-2.2C170.5-130.4,174-130.4,176.8-128.4Zm28.6.7c1.1.5,7.5.8,14.5.6,12-.4,12.6-.3,12.9,1.6.5,3.7-9.4,8.5-11.3,5.5-.3-.6-4.6-1-9.4-1-8.8,0-8.9,0-9.8,2.7-.6,1.6-1.1,6.4-1.2,10.7l-.2,7.9,10.6-.5c9-.5,10.7-.4,11.2,1,.4,1-.4,2.4-2.3,3.9-2.5,1.9-4,2.3-10.6,2.3-4.4,0-8,.5-8.3,1.1-1.1,1.7,1.6,9.9,3.7,11a7.67,7.67,0,0,1,2.8,3.5c.9,2.2,1.5,2.4,7.9,2.4,3.9,0,8.1-.5,9.5-1.1a8.563,8.563,0,0,1,5-.5c2,.5,2.6,1.3,2.6,3.5,0,5.5-8.3,9.3-15.4,7a22.918,22.918,0,0,1-5.1-2.1c-1.2-1.1-14.8-1-16,.1-2.1,1.8-9.7,3-11.6,1.8-2.4-1.5-2.4-3.1.2-6.6,1.8-2.4,2-3.7,1.5-9.2-.3-3.5-.7-7.5-.7-8.9-.2-3.2.9-17.5,1.7-22.1.4-2.5.1-3.9-1-4.8-2.2-1.9-2-3.2,1.2-7C191.7-129.6,199.4-130.8,205.4-127.7Zm76.3-.6a17.912,17.912,0,0,1,6,5.4c3.7,5.7,2.6,10.7-3.8,16.8-4.4,4.2-4.9,5.1-4.9,9.1,0,4.7,2.7,12.2,7.2,20.3,3,5.3,2.7,7.2-1.4,10.1-4.2,3-8.2,1.2-9.4-4.2-1.2-5.8-6.7-18.1-8.8-20.1-2.3-2.2-2.4-2.2-5.7-.3-2.8,1.5-3.5,2.5-3.7,5.7-.2,2.1.1,4.2.7,4.8S259-78,259-76c0,6-6.5,11-14.4,11-5.9,0-7.2-2.1-5.2-8.2,1.9-5.9,2.6-14.8,1.3-17-.9-1.3-.7-2.6.6-5.3,2-4.2,2.1-6.8.5-9.5-1-1.5-1-2.7-.1-5,.9-2.5.8-3.3-.8-5.4-2.3-3-2.4-4.5-.1-7.2.262-.323,2.333-6.841,3.8-7.4.746-.286,25.653-1.547,29.8-1.6,1.22-.016,7.036,1.718,7.3,3.2.5,2.671-5.168,7.685-3.5,8,.237.04-12.9-4.65-12.6-4.5,1.967.968-9.343.711-8.8,1.5.733,1.061-5.435,5.678-5.4,8,.1,6.438,3.844,11.512,13.4,11.4C271.7-104.1,279.1-129.6,281.7-128.3ZM230-45.5c1,1.2,1,1.8,0,3-.8.9-1,2.8-.6,4.9.7,3.8-1.2,6.2-2.1,2.7-.7-2.7-3-2.7-3.8,0a2.268,2.268,0,0,1-2.3,1.7c-1.3-.2-1.6-1.3-1.4-5.3.5-7.9.8-8.5,5.1-8.5C227.1-47,229.3-46.4,230-45.5Zm58.7,6c.2,5.8,0,6.5-1.7,6.5-1,0-2.9-1.5-4.1-3.3a41.174,41.174,0,0,0-4.7-5.3c-1.5-1.2-2.2-2.6-1.8-3.2,1.1-1.8,4-1.4,5.3.8a12.729,12.729,0,0,0,3.4,3.1c2,1,2.1.9,1.5-1.5-.7-2.7.1-5.3,1.2-4.1C288.1-46.2,288.5-43,288.7-39.5ZM86-45c1.2.8,1.3,1.3.3,3-1.6,2.4-1.7,5.6-.3,6.5,1.5,1,1.2,2.5-.6,2.5a2.53,2.53,0,0,1-2.1-2c-.3-1.1-1-2-1.5-2s-1.2.9-1.5,2-1.2,2-1.9,2c-1.9,0-2-11.6-.1-12.3C80.4-46.2,84.4-46,86-45Zm23.5,4.1c.1,5.5,1.1,7.2,3.7,6.3,1.3-.4,1.9-.2,1.6.6-.2.6-.7,1.1-1.1,1.1-.4-.1-2.4-.1-4.6-.1h-3.8v-5.3c0-2.8.5-5.8,1-6.5C108.1-47.1,109.5-45.4,109.5-40.9Zm33.3-3.4c.2.8-.6,1.3-2.2,1.3-3.3,0-3.3,1.3-.2,3,3.8,2,4.1,4.2.9,6.7-3.5,2.9-6.3,3-6.3.3,0-2.3,1-2.6,2.8-.8.9.9,1.2.8,1.2-.6,0-1-1.1-2.7-2.5-3.8-3.1-2.4-3.2-4.2-.2-6.3C138.8-46.3,142.1-46.1,142.8-44.3Zm30.2.4c0,.5-.9.9-1.9.9-1.7,0-2,.8-2.3,5.2-.4,6.7-2.2,6.9-2.6.4-.3-3.8-.7-4.9-2.3-5.3-2-.6-2.5-1.9-.9-2.5C165-45.8,173-44.8,173-43.9Zm28.4-.5c1.8,1.8,2,3,.6,3.9-.5.3-1,.1-1-.5a4.9,4.9,0,0,0-1.6-2.7c-1.4-1.5-1.8-1.4-4,.9-2.7,2.7-2.5,5.2.8,6.9,1.5.8,2.3.6,3.8-1.3,1.4-1.7,1.9-1.9,2-.8,0,1.4-1.9,3.6-4.7,5.3-1.9,1.2-6.3-1.5-7-4.2-1.1-4.5,2.6-8.5,8.4-9A4.14,4.14,0,0,1,201.4-44.4Zm55.4,1.9c3,4.7,4,9.5,1.9,9.5-1.5,0-4.7-4.1-4.7-6.1a3.616,3.616,0,0,0-1.7-2.4c-1.8-1.3-1.2-4.5.9-4.5C253.9-46,255.5-44.4,256.8-42.5Zm-5.4,3.4c.8,1.2-1.7,6.1-3.1,6.1-1.6,0-1.6-1.2-.1-4.5C249.4-40.1,250.5-40.7,251.4-39.1Zm26.8,4.3c-.9.9-1.2.7-1.2-1.2s.3-2.1,1.2-1.2S279.1-35.7,278.2-34.8Z"/><path d="M223.7-44.3A1.847,1.847,0,0,0,225-41a1.8,1.8,0,0,0,2-2A1.847,1.847,0,0,0,223.7-44.3Z"/><path d="M80.2-43c-1,1.7-1,2.1.3,2.7a2.431,2.431,0,0,0,3.2-3.1C82.9-45.6,81.7-45.4,80.2-43Z"/><path d="M48.7-126.4c-1.4,1.5-.6,3.4,1.4,3.4,1.4,0,1.9-.5,1.7-1.7C51.5-126.5,49.8-127.4,48.7-126.4Z"/><path d="M426-42l-2.7,1.7c-2.4,1.6-5.5,1.8-29.3,1.8-29.8-.1-33.6-.7-42.5-7-9.209-6.5-9.741-10.94-12.9-12.1-.994-.38-5.816-.365-6.8.8-.12.14.917-2.18,2.2-2.5.976-.246,2.43,1.478,3.8,1.7,1.04.165,2.494-2.19,2.2-1.7C334.6-50.7,316.8-33,314-33s-12.4-3.1-16-9c-.312-.494-5.938-16.1-5.6-17.3.621-2.249,7.658,1.48,6.4,0L309.6-43l9.8-.7,12.4-13.9L182.8-55c-70.925,0-99.727.2-108.446.845-1.577.116-2.446.274-2.554.455a9.651,9.651,0,0,0-.8,4c0,3.2-2.3,8.2-5.4,11.5-3.5,3.9-7.4,5.4-14.5,5.4-7,.1-11.1-1.4-14.4-5-1.9-2.1-7-14.8-7-17.6,0-.334,3.075.218,7,0,1.774-.1,1.7,5.09,3.9,8.8,1.808,3.045,5.877,4.617,8.4,4.6s8.092-2.077,10.8-4.6c2.406-2.238,1.91-5,3.5-7.1a12.981,12.981,0,0,1,11.054-.455C73.966-54.276,27.13-55.37,26.1-55.4c-1.6-.1-2.7-.8-2.9-1.8-.2-1.2.5-1.7,3-2l3.3-.3-.4-11.8c-.2-6.6.1-11.7.6-11.7s1.6,1.2,2.5,2.7A39.41,39.41,0,0,0,36-75c2.9,3.3,7.4,11,6.8,11.6-.3.3-1.7-.1-3.2-.7-3.5-1.6-5.3-.1-3.7,3,1.1,2,2,2.1,14,2.1,10.4,0,13-.3,13.4-1.5.9-2.3-.9-12-3.4-18.3-.5-1.2-1.3-3.2-1.8-4.5-.4-1.2-1.3-3.4-2-5-1.9-4.7-2.8-7-5.2-13.2-1.2-3.3-3.4-8.5-4.7-11.5a40.437,40.437,0,0,1-3-10.6c-.4-4.5-.1-5.3,1.9-6.8,5.3-3.7,11.9-.4,11.9,6,0,2.5-.7,3.8-3,5.4-3.1,2.2-3.7,4.7-2.1,7.8.5.9,4.1,8.2,7.9,16.2C67.7-78.8,71-69.7,71-64.7c0,1.9.6,4,1.3,4.6,1,.8,32.1,1,110.8.8,52.569-.1,89.467.271,114.9,0s33.649-1.191,33.8-2.1c.1-.491-.187-43.434-10.4-52.6-2.68-2.406-10.977,1.32-14.8,7.9-3.162,5.442-2.8,9.9-2.8,12.6-2,.9-3.992,25.879-5.8,34.2-1.352,6.223-5.521.135-5.6,0-1.6-2.9-1.1-25.5,1-33.2,3.7-13.2,5.8-18.7,9.2-24.5,4.7-8,9-10.3,19.6-10.4,8.5-.1,12,1.6,14.8,7,1.9,3.8,3.2,28.6,1.6,35.8-.9,4.3.4,5,0,8,1.7,3.3,2.1,14.8,0,17.3-.5.7-1.5-3-1.2-2.1.7,1.9,2.1,1.2,11.1-5.7a61.549,61.549,0,0,1,10.5-6c5.2-2.2,7-2.4,33.2-2.7,23.8-.3,28.1-.1,30.7,1.3l3.1,1.6ZM97.7-127.8c.7.6,6.3.8,13.7.6,6.8-.1,12.8,0,13.1.4,2.2,2.2-5.4,8.3-9,7.2-3-.9-16.7-2.2-18.6-1.7a5.29,5.29,0,0,0-2.7,3.1c-1.2,3.3-1.6,17.9-.5,18.5.4.2,4.9.1,9.8-.3,9.8-.7,11.5-.5,11.5,1.6,0,2.9-5.2,4.9-12.7,4.9-4,.1-7.8.6-8.4,1.2-1.8,1.8-.1,8.2,3,11.2a15.61,15.61,0,0,1,3.4,4.3c.5,1.5,1.9,1.8,7.5,1.8a40.077,40.077,0,0,0,10-1.1c3.9-1.3,7.2.2,7.2,3.5,0,3-2.5,5.1-7.6,6.6-3.6,1.1-4.9,1-10.1-.9C101-69.1,92.1-69.7,88.9-68c-1,.6-4.2,1.2-7,1.3-6.5.3-8.4-1.8-5-5.4,2-2.2,2.2-3.1,1.7-9.9-.6-8.7-.6-8.3-.2-18.1.1-4.2.8-9,1.5-10.7,1.2-2.8,1.1-3.6-.8-6.8l-2.2-3.6,2.6-3.4c1.4-1.9,3.8-3.7,5.3-4a33.421,33.421,0,0,0,3.7-.9C90.1-130.1,96.4-128.9,97.7-127.8Zm79.1-.6c3,2.1,2.8,5.6-.8,9.4a81.7,81.7,0,0,0-11.9,17.1c-1.7,3.1-4.4,7.7-6.1,10.2-1.6,2.5-3,4.9-3,5.4s-1.8,2.7-4,4.8c-4.3,4.2-4.9,5.9-2.4,6.9,2.2.8,15.7.6,22.4-.3,5.4-.8,9,0,9,2,0,.5-1.2,2.2-2.6,3.6-2.4,2.4-3,2.5-8.2,1.9-18.4-2.2-20.3-2.1-26.9,1.3-3.5,1.7-7.4,3.1-8.7,3.1-2.6,0-6.6-3.4-6.6-5.5,0-.7,2.6-4.2,5.8-7.8a73.4,73.4,0,0,0,8.8-12.4A251.464,251.464,0,0,1,156-112.2c2.5-3.4,2.7-4.3,1.8-6.4-1-2-1.8-2.4-5.9-2.4a78.055,78.055,0,0,0-12,1.5c-6.4,1.4-7.5,1.4-8.7.1-1.3-1.3-1.3-1.8.1-4,2-3,7-4.2,12.1-2.8,4.6,1.3,17.7,0,22.6-2.2C170.5-130.4,174-130.4,176.8-128.4Zm28.6.7c1.1.5,7.5.8,14.5.6,12-.4,12.6-.3,12.9,1.6.5,3.7-9.4,8.5-11.3,5.5-.3-.6-4.6-1-9.4-1-8.8,0-8.9,0-9.8,2.7-.6,1.6-1.1,6.4-1.2,10.7l-.2,7.9,10.6-.5c9-.5,10.7-.4,11.2,1,.4,1-.4,2.4-2.3,3.9-2.5,1.9-4,2.3-10.6,2.3-4.4,0-8,.5-8.3,1.1-1.1,1.7,1.6,9.9,3.7,11a7.67,7.67,0,0,1,2.8,3.5c.9,2.2,1.5,2.4,7.9,2.4,3.9,0,8.1-.5,9.5-1.1a8.563,8.563,0,0,1,5-.5c2,.5,2.6,1.3,2.6,3.5,0,5.5-8.3,9.3-15.4,7a22.918,22.918,0,0,1-5.1-2.1c-1.2-1.1-14.8-1-16,.1-2.1,1.8-9.7,3-11.6,1.8-2.4-1.5-2.4-3.1.2-6.6,1.8-2.4,2-3.7,1.5-9.2-.3-3.5-.7-7.5-.7-8.9-.2-3.2.9-17.5,1.7-22.1.4-2.5.1-3.9-1-4.8-2.2-1.9-2-3.2,1.2-7C191.7-129.6,199.4-130.8,205.4-127.7Zm76.3-.6a17.912,17.912,0,0,1,6,5.4c3.7,5.7,2.6,10.7-3.8,16.8-4.4,4.2-4.9,5.1-4.9,9.1,0,4.7,2.7,12.2,7.2,20.3,3,5.3,2.7,7.2-1.4,10.1-4.2,3-8.2,1.2-9.4-4.2-1.2-5.8-6.7-18.1-8.8-20.1-2.3-2.2-2.4-2.2-5.7-.3-2.8,1.5-3.5,2.5-3.7,5.7-.2,2.1.1,4.2.7,4.8S259-78,259-76c0,6-6.5,11-14.4,11-5.9,0-7.2-2.1-5.2-8.2,1.9-5.9,2.6-14.8,1.3-17-.9-1.3-.7-2.6.6-5.3,2-4.2,2.1-6.8.5-9.5-1-1.5-1-2.7-.1-5,.9-2.5.8-3.3-.8-5.4-2.3-3-2.4-4.5-.1-7.2.262-.323,2.333-6.841,3.8-7.4.746-.286,25.653-1.547,29.8-1.6,1.22-.016,7.036,1.718,7.3,3.2.5,2.671-5.168,7.685-3.5,8,.237.04-12.9-4.65-12.6-4.5,1.967.968-9.343.711-8.8,1.5.733,1.061-5.435,5.678-5.4,8,.1,6.438,3.844,11.512,13.4,11.4C271.7-104.1,279.1-129.6,281.7-128.3ZM230-45.5c1,1.2,1,1.8,0,3-.8.9-1,2.8-.6,4.9.7,3.8-1.2,6.2-2.1,2.7-.7-2.7-3-2.7-3.8,0a2.268,2.268,0,0,1-2.3,1.7c-1.3-.2-1.6-1.3-1.4-5.3.5-7.9.8-8.5,5.1-8.5C227.1-47,229.3-46.4,230-45.5Zm58.7,6c.2,5.8,0,6.5-1.7,6.5-1,0-2.9-1.5-4.1-3.3a41.174,41.174,0,0,0-4.7-5.3c-1.5-1.2-2.2-2.6-1.8-3.2,1.1-1.8,4-1.4,5.3.8a12.729,12.729,0,0,0,3.4,3.1c2,1,2.1.9,1.5-1.5-.7-2.7.1-5.3,1.2-4.1C288.1-46.2,288.5-43,288.7-39.5ZM86-45c1.2.8,1.3,1.3.3,3-1.6,2.4-1.7,5.6-.3,6.5,1.5,1,1.2,2.5-.6,2.5a2.53,2.53,0,0,1-2.1-2c-.3-1.1-1-2-1.5-2s-1.2.9-1.5,2-1.2,2-1.9,2c-1.9,0-2-11.6-.1-12.3C80.4-46.2,84.4-46,86-45Zm23.5,4.1c.1,5.5,1.1,7.2,3.7,6.3,1.3-.4,1.9-.2,1.6.6-.2.6-.7,1.1-1.1,1.1-.4-.1-2.4-.1-4.6-.1h-3.8v-5.3c0-2.8.5-5.8,1-6.5C108.1-47.1,109.5-45.4,109.5-40.9Zm33.3-3.4c.2.8-.6,1.3-2.2,1.3-3.3,0-3.3,1.3-.2,3,3.8,2,4.1,4.2.9,6.7-3.5,2.9-6.3,3-6.3.3,0-2.3,1-2.6,2.8-.8.9.9,1.2.8,1.2-.6,0-1-1.1-2.7-2.5-3.8-3.1-2.4-3.2-4.2-.2-6.3C138.8-46.3,142.1-46.1,142.8-44.3Zm30.2.4c0,.5-.9.9-1.9.9-1.7,0-2,.8-2.3,5.2-.4,6.7-2.2,6.9-2.6.4-.3-3.8-.7-4.9-2.3-5.3-2-.6-2.5-1.9-.9-2.5C165-45.8,173-44.8,173-43.9Zm28.4-.5c1.8,1.8,2,3,.6,3.9-.5.3-1,.1-1-.5a4.9,4.9,0,0,0-1.6-2.7c-1.4-1.5-1.8-1.4-4,.9-2.7,2.7-2.5,5.2.8,6.9,1.5.8,2.3.6,3.8-1.3,1.4-1.7,1.9-1.9,2-.8,0,1.4-1.9,3.6-4.7,5.3-1.9,1.2-6.3-1.5-7-4.2-1.1-4.5,2.6-8.5,8.4-9A4.14,4.14,0,0,1,201.4-44.4Zm55.4,1.9c3,4.7,4,9.5,1.9,9.5-1.5,0-4.7-4.1-4.7-6.1a3.616,3.616,0,0,0-1.7-2.4c-1.8-1.3-1.2-4.5.9-4.5C253.9-46,255.5-44.4,256.8-42.5Zm-5.4,3.4c.8,1.2-1.7,6.1-3.1,6.1-1.6,0-1.6-1.2-.1-4.5C249.4-40.1,250.5-40.7,251.4-39.1Zm26.8,4.3c-.9.9-1.2.7-1.2-1.2s.3-2.1,1.2-1.2S279.1-35.7,278.2-34.8Z"/></g></svg>