<svg xmlns="http://www.w3.org/2000/svg" width="141.844" height="136.977" viewBox="0 0 141.844 136.977"><path d="M78.657,0H61.448L57.537-12.6h-.782Q49.367,1.738,35.635,1.738T14.167-11.473Q6.432-24.684,6.432-48.237t7.562-36.982q7.562-13.428,20.859-13.428a19.682,19.682,0,0,1,11.473,3.3q4.78,3.3,8.865,10.951h1.391q-1.043-13.124-1.043-18.513v-32.332H78.657ZM55.364-48.063q0-16.687-3-23.641T42.5-78.657q-12.255,0-12.255,30.768,0,15.21,3,22.641t9.474,7.431a9.885,9.885,0,0,0,9.43-5.78q2.955-5.78,3.216-21.424Zm92.911,29.377V0H91.868V-14.775l29.725-63.36H93.78V-96.822h53.278v16.34L118.2-18.687Z" transform="translate(-6.432 135.238)"/></svg>