<?xml version="1.0" encoding="utf-8"?>
<!-- Generator: Adobe Illustrator 21.1.0, SVG Export Plug-In . SVG Version: 6.00 Build 0)  -->
<svg version="1.1" id="Ebene_1" xmlns="http://www.w3.org/2000/svg" xmlns:xlink="http://www.w3.org/1999/xlink" x="0px" y="0px"
	 viewBox="0 0 1080 1080" style="enable-background:new 0 0 1080 1080;" xml:space="preserve">
<style type="text/css">
	.st0{fill:none;}
	.st1{fill:#E8E8E4;}
</style>
<rect class="st0" width="1080" height="1080"/>
<g>
	<path class="st1" d="M577.5,371.9C657,258.8,701.4,200.6,725.8,154.7c10.7-18.4,18.4-30.6,18.4-41.3c0-7.6-15.3-12.2-55.1-12.2
		H461.2c-122.4,0-191.2,10.7-227.9,50.5c-32.1,35.2-55.1,78-67.3,104c-13.8,6.1-32.1,1.5-38.2-10.7c18.4-53.5,44.4-145.3,62.7-229.4
		c6.1-4.6,18.4-4.6,26,0c4.6,36.7,27.5,38.2,151.4,38.2h403.8c110.1,0,159.1-1.5,175.9-4.6c6.1,1.5,9.2,7.6,9.2,13.8
		C915.5,98.2,785.5,275.6,706,390.3l-252.4,364c-16.8,24.5-151.4,214.1-151.4,237.1c0,15.3,15.3,18.4,42.8,21.4
		c39.8,3.1,119.3,3.1,226.4,3.1c97.9,0,224.8-3.1,283-35.2c44.4-24.5,81.1-81.1,107.1-140.7c13.8-4.6,33.6-3.1,38.2,10.7
		c-13.8,70.4-44.4,179-68.8,217.2c-84.1-3.1-171.3-4.6-278.4-4.6H259.3c-81.1,0-136.1,3.1-171.3,4.6c-6.1-3.1-7.6-10.7-7.6-18.4
		c32.1-30.6,119.3-139.2,166.7-208L577.5,371.9z"/>
</g>
</svg>
