<?xml version="1.0" encoding="utf-8"?>
<!-- Generator: Adobe Illustrator 21.1.0, SVG Export Plug-In . SVG Version: 6.00 Build 0)  -->
<svg version="1.1" id="Ebene_1" xmlns="http://www.w3.org/2000/svg" xmlns:xlink="http://www.w3.org/1999/xlink" x="0px" y="0px"
	 viewBox="0 0 1080 1080" style="enable-background:new 0 0 1080 1080;" xml:space="preserve">
<style type="text/css">
	.st0{fill:none;}
	.st1{fill:#E8E8E4;}
</style>
<rect class="st0" width="1080" height="1080"/>
<g>
	<path class="st1" d="M166.5,195.5C132,111.8,109.6,80.4,45.4,72.9l-26.9-3C8,61,9.5,40,21.4,32.6c43.3,3,91.3,4.5,155.5,4.5
		c65.7,0,118.1-1.5,180.9-4.5c10.5,6,13.4,28.4,2.9,37.4l-22.4,3c-56.7,7.5-68.8,16.4-70.3,28.4c3.2,15,28.5,95.7,74.8,209.3
		C411.6,484,480.2,655.9,555,826.2c46.5-98.6,109.3-252.6,143.6-331.8c43.3-101.6,113.5-270.5,139-334.8
		c11.9-31.4,13.4-47.8,13.4-58.3s-14.8-22.5-67.2-28.4l-27-3c-10.5-8.9-7.3-31.4,3.2-37.4c41.7,3,98.6,4.5,155.3,4.5
		c49.4,0,95.7-1.5,145.1-4.5c10.5,6,10.5,29.9,2.9,37.4l-44.8,3c-35.9,3-58.3,20.9-77.6,52.3C898.9,195.5,840.5,316.6,773.3,469
		l-80.8,183.8c-59.6,137.5-130,311-155.3,390.1c-4.6,3-10.5,4.5-16.6,4.5c-7.4,0-14.8-1.5-22.4-4.5c-16.4-62.7-43.3-136-68.8-198.8
		L166.5,195.5z"/>
</g>
</svg>
