<?xml version="1.0" encoding="utf-8"?>
<!-- Generator: Adobe Illustrator 21.1.0, SVG Export Plug-In . SVG Version: 6.00 Build 0)  -->
<svg version="1.1" id="Ebene_1" xmlns="http://www.w3.org/2000/svg" xmlns:xlink="http://www.w3.org/1999/xlink" x="0px" y="0px"
	 viewBox="0 0 1080 1080" style="enable-background:new 0 0 1080 1080;" xml:space="preserve">
<style type="text/css">
	.st0{fill:none;}
	.st1{fill:#E8E8E4;}
	.st2{font-family:'AGaramondPro-Regular';}
	.st3{font-size:1296px;}
</style>
<text transform="matrix(1 0 0 1 64.0078 -270.0236)" class="st1 st2 st3">R</text>
<rect class="st0" width="1080" height="1080"/>
<g>
	<path class="st1" d="M517,1071c-128.9,0-210.3-39.9-239.4-56.8c-18.4-33.8-38.4-142.7-41.4-214.9c7.7-10.7,30.7-13.8,36.8-4.6
		c23,78.3,85.9,228.7,264,228.7c128.9,0,191.8-84.4,191.8-176.5c0-67.5-13.8-142.7-125.8-214.9l-145.8-95.2
		c-76.7-50.6-165.7-138.1-165.7-264c0-145.8,113.6-264,313.1-264c47.6,0,102.8,9.2,142.7,20c20,6.1,41.4,9.2,53.7,9.2
		c13.8,36.8,27.6,122.8,27.6,187.2c-6.1,9.2-30.7,13.8-38.4,4.6c-20-73.7-61.4-173.4-208.7-173.4c-150.4,0-182.6,99.8-182.6,170.3
		c0,89,73.7,153.5,130.4,188.8L652,492.4c96.7,59.9,191.8,148.9,191.8,294.7C843.9,955.9,716.5,1071,517,1071z"/>
</g>
</svg>
